<svg width="99" height="100" viewBox="0 0 99 100" fill="none" xmlns="http://www.w3.org/2000/svg"><path fill-rule="evenodd" clip-rule="evenodd" d="M25 28.3a2.8 2.8 0 0 0-4.3.2A36 36 0 0 0 24.4 75a36 36 0 0 0 46.3 3.6c1.4-1 1.5-3 .3-4.3l-46-46Z" fill="black"/><path fill-rule="evenodd" clip-rule="evenodd" d="M76 70.7a2 2 0 0 0 2.9-.2c2.9-4.1 4.8-8.6 5.8-13.3.4-1.8-1.7-2.8-3-1.5l-9 9a2 2 0 0 0 0 2.7l3.3 3.3ZM65.7 60.4c.8.8 2 .8 2.8 0l15.8-15.8A2 2 0 0 0 85 43c-.5-2.4-1.2-4.8-2.2-7-.5-1.3-2.1-1.6-3-.6l-18.2 18a2 2 0 0 0 0 2.9l4.2 4.2ZM54.5 49.2c.8.7 2 .7 2.8 0l19.8-19.8a2 2 0 0 0 .1-2.6 36.3 36.3 0 0 0-4.6-4.6 2 2 0 0 0-2.6.2L50.3 42a2 2 0 0 0 0 2.9l4.2 4.2ZM43.2 37.9c.8.8 2 .8 2.8 0l18.1-18c1-1 .7-2.7-.5-3.2-2.3-1-4.7-1.7-7-2.1a2 2 0 0 0-1.8.5L39 31a2 2 0 0 0 0 2.8l4.2 4.2ZM32 26.7c.8.7 2 .7 2.8 0l9-9c1.2-1.3.2-3.4-1.6-3-4.7 1-9.2 3-13.2 5.8-1 .7-1 2.1-.2 3l3.2 3.2Z" fill="black"/></svg>